<svg width="36" height="40" viewBox="0 0 36 40" fill="none" xmlns="http://www.w3.org/2000/svg">
<g clip-path="url(#clip0)">
<path d="M31.627 14.9148L31.6738 14.8672L33.7841 12.7906C33.9021 12.6745 33.9956 12.5367 34.0595 12.3851C34.1233 12.2334 34.1562 12.0708 34.1562 11.9066C34.1562 11.7425 34.1233 11.5799 34.0595 11.4282C33.9956 11.2765 33.9021 11.1387 33.7841 11.0227L31.9841 9.25078C31.8662 9.13468 31.7262 9.04258 31.5721 8.97974C31.418 8.91691 31.2529 8.88456 31.0861 8.88456C30.9193 8.88456 30.7542 8.91691 30.6001 8.97974C30.446 9.04258 30.306 9.13468 30.1881 9.25078L28.2294 11.1789C25.9571 9.34043 23.2243 8.13723 20.3175 7.69531V5H22.8571C23.1939 5 23.5169 4.8683 23.7551 4.63388C23.9932 4.39946 24.127 4.08152 24.127 3.75V1.25C24.127 0.918479 23.9932 0.600537 23.7551 0.366117C23.5169 0.131696 23.1939 0 22.8571 0L12.6984 0C12.3619 0.00103019 12.0396 0.133057 11.8017 0.367255C11.5637 0.601452 11.4296 0.918796 11.4286 1.25V3.75C11.4296 4.0812 11.5637 4.39855 11.8017 4.63275C12.0396 4.86694 12.3619 4.99897 12.6984 5H15.2381V7.69531C11.4333 8.27705 7.95493 10.1502 5.40528 12.9904C2.85564 15.8307 1.39525 19.4592 1.27698 23.2477C1.00317 32.1484 8.47301 39.8609 17.5175 40C26.7563 40.1383 34.2857 32.8125 34.2857 23.75C34.2932 20.6128 33.3691 17.5419 31.627 14.9148V14.9148ZM16.2198 29.4961C16.3923 29.4936 16.5587 29.5586 16.6826 29.6768C16.8064 29.795 16.8774 29.9568 16.8802 30.1266V31.8695C16.8774 32.0393 16.8064 32.2011 16.6826 32.3193C16.5587 32.4375 16.3923 32.5025 16.2198 32.5H9.64444C9.46386 32.5021 9.28481 32.4672 9.11859 32.3977C8.95236 32.3283 8.80259 32.2256 8.67871 32.0962C8.55483 31.9669 8.45955 31.8136 8.39887 31.6462C8.3382 31.4788 8.31345 31.3008 8.32619 31.1234C8.54682 28.3719 9.49047 26.6383 11.3778 23.9852C12.9984 21.7047 13.5286 21.0695 13.5286 19.1148C13.5286 17.793 13.3865 17.2187 12.5595 17.2187C11.8143 17.2187 11.5524 17.7969 11.5524 18.9906V19.3992C11.551 19.4833 11.5329 19.5664 11.4989 19.6436C11.465 19.7208 11.4159 19.7907 11.3545 19.8493C11.2931 19.9078 11.2206 19.9539 11.1411 19.9848C11.0616 20.0158 10.9767 20.031 10.8913 20.0297H8.91508C8.82961 20.031 8.74471 20.0158 8.66523 19.9848C8.58575 19.9539 8.51324 19.9078 8.45185 19.8493C8.39046 19.7907 8.34138 19.7208 8.30743 19.6436C8.27348 19.5664 8.25531 19.4833 8.25396 19.3992V19.0813C8.25396 16.9484 8.92698 14.375 12.7325 14.375C16.1452 14.375 17.1429 16.3945 17.1429 19.1406C17.1429 21.9203 16.1556 23.1414 14.4167 25.493C13.4992 26.6648 12.4635 28.2719 12.3206 29.493L16.2198 29.4961ZM27.3016 27.525C27.3016 30.2719 26.3254 32.5 22.7595 32.5C19.3008 32.5 18.4127 30.1937 18.4127 27.543V19.3141C18.4127 16.132 19.9667 14.375 22.873 14.375C25.7937 14.375 27.3016 16.1438 27.3016 19.1641V27.525ZM22.8468 17.3227C22.1 17.3227 21.7968 17.9086 21.7968 18.8852V27.9437C21.7968 28.968 22.0817 29.5523 22.8468 29.5523C23.6119 29.5523 23.8786 28.9273 23.8786 27.8906V18.8328C23.8802 17.9523 23.6413 17.3227 22.8468 17.3227Z" fill="#2388A6"/>
</g>
<defs>
<clipPath id="clip0">
<rect width="35.5556" height="40" fill="white"/>
</clipPath>
</defs>
</svg>
