<svg width="132" height="125" viewBox="0 0 132 125" fill="none" xmlns="http://www.w3.org/2000/svg">
<ellipse cx="66" cy="62.5" rx="66" ry="62.5" fill="#299ABB"/>
<g clip-path="url(#clip0)">
<path d="M107.543 59.6359L99.094 52.112V32.3057C99.094 31.6897 98.8513 31.099 98.4194 30.6634C97.9874 30.2278 97.4015 29.9831 96.7906 29.9831H87.5769C86.966 29.9831 86.3801 30.2278 85.9482 30.6634C85.5162 31.099 85.2735 31.6897 85.2735 32.3057V39.8064L70.7015 26.833C69.7974 26.007 68.0742 25.3378 66.8462 25.3378C65.6181 25.3378 63.9007 26.007 62.9966 26.833L26.1419 59.6402C25.6878 60.1029 25.4183 60.7177 25.3846 61.3677C25.414 61.9354 25.6201 62.4794 25.9734 62.9224L29.0557 66.3759C29.5361 66.8106 30.1411 67.08 30.7833 67.1453C31.34 67.0892 31.8716 66.8831 32.3222 66.5486L34.6112 64.5163V95.0169C34.6112 96.2489 35.0966 97.4304 35.9606 98.3016C36.8245 99.1727 37.9963 99.6622 39.2181 99.6622H94.4872C95.709 99.6622 96.8808 99.1727 97.7447 98.3016C98.6087 97.4304 99.094 96.2489 99.094 95.0169V64.5149L101.384 66.5472C101.837 66.8812 102.37 67.0876 102.928 67.1453C103.564 67.0782 104.163 66.8082 104.637 66.3744L107.719 62.9181C108.05 62.4635 108.253 61.9274 108.308 61.3663C108.242 60.7222 107.974 60.1162 107.543 59.6359V59.6359ZM66.8462 50.8868C68.6684 50.8868 70.4498 51.4317 71.965 52.4526C73.4802 53.4734 74.6611 54.9244 75.3585 56.622C76.0558 58.3196 76.2383 60.1877 75.8828 61.9899C75.5273 63.792 74.6498 65.4475 73.3612 66.7468C72.0726 68.0461 70.4309 68.9309 68.6437 69.2894C66.8564 69.6479 65.0038 69.4639 63.3202 68.7607C61.6367 68.0575 60.1977 66.8667 59.1853 65.3389C58.1729 63.8111 57.6325 62.0149 57.6325 60.1774C57.6325 57.7134 58.6032 55.3503 60.3311 53.608C62.059 51.8656 64.4025 50.8868 66.8462 50.8868ZM82.9701 90.3716H50.7222C50.1113 90.3716 49.5254 90.1269 49.0935 89.6913C48.6615 89.2558 48.4188 88.665 48.4188 88.049C48.4188 84.353 49.8749 80.8083 52.4667 78.1949C55.0586 75.5814 58.5739 74.1132 62.2393 74.1132H71.453C75.1184 74.1132 78.6337 75.5814 81.2256 78.1949C83.8174 80.8083 85.2735 84.353 85.2735 88.049C85.2735 88.665 85.0308 89.2558 84.5988 89.6913C84.1669 90.1269 83.581 90.3716 82.9701 90.3716Z" fill="white"/>
</g>
<defs>
<clipPath id="clip0">
<rect x="25.3846" y="25.3378" width="82.9231" height="74.3243" fill="white"/>
</clipPath>
</defs>
</svg>
