<svg width="46" height="40" viewBox="0 0 46 40" fill="none" xmlns="http://www.w3.org/2000/svg">
<g clip-path="url(#clip0)">
<path d="M41.3397 2H3.7667C1.68366 2 0 3.67969 0 5.75V33.25C0 35.3203 1.68366 37 3.7667 37H41.3397C43.4227 37 45.1064 35.3203 45.1064 33.25V5.75C45.1064 3.67969 43.4227 2 41.3397 2ZM4.23655 5.75H40.8698C41.1283 5.75 41.3397 5.96094 41.3397 6.21875V9.5H3.7667V6.21875C3.7667 5.96094 3.97813 5.75 4.23655 5.75ZM40.8698 33.25H4.23655C3.97813 33.25 3.7667 33.0391 3.7667 32.7812V19.5H41.3397V32.7812C41.3397 33.0391 41.1283 33.25 40.8698 33.25ZM15.0355 25.4375V28.5625C15.0355 29.0781 14.6126 29.5 14.0957 29.5H8.45745C7.9406 29.5 7.51773 29.0781 7.51773 28.5625V25.4375C7.51773 24.9219 7.9406 24.5 8.45745 24.5H14.0957C14.6126 24.5 15.0355 24.9219 15.0355 25.4375ZM30.0709 25.4375V28.5625C30.0709 29.0781 29.6481 29.5 29.1312 29.5H18.4811C17.9642 29.5 17.5414 29.0781 17.5414 28.5625V25.4375C17.5414 24.9219 17.9642 24.5 18.4811 24.5H29.1312C29.6481 24.5 30.0709 24.9219 30.0709 25.4375Z" fill="#2388A6"/>
</g>
<defs>
<clipPath id="clip0">
<rect width="45.1064" height="40" fill="white"/>
</clipPath>
</defs>
</svg>
