<svg width="50" height="40" viewBox="0 0 50 40" fill="none" xmlns="http://www.w3.org/2000/svg">
<g clip-path="url(#clip0)">
<path d="M39.8722 14.9219L39.2337 16.0391C39.0002 16.4531 38.5019 16.625 38.058 16.4609C37.1393 16.1172 36.2984 15.625 35.5587 15.0078C35.2006 14.7109 35.1071 14.1875 35.3407 13.7812L35.9792 12.6641C35.4419 12.0391 35.0215 11.3125 34.7412 10.5234H33.4565C32.9894 10.5234 32.5845 10.1875 32.5066 9.71875C32.3509 8.78125 32.3431 7.79687 32.5066 6.82031C32.5845 6.35156 32.9894 6.00781 33.4565 6.00781H34.7412C35.0215 5.21875 35.4419 4.49218 35.9792 3.86718L35.3407 2.75C35.1071 2.34375 35.1928 1.82031 35.5587 1.52344C36.2984 0.906248 37.1471 0.41406 38.058 0.0703102C38.5019 -0.0937523 39.0002 0.0781227 39.2337 0.492185L39.8722 1.60937C40.6897 1.46094 41.5228 1.46094 42.3404 1.60937L42.9788 0.492185C43.2124 0.0781227 43.7107 -0.0937523 44.1545 0.0703102C45.0732 0.41406 45.9141 0.906248 46.6538 1.52344C47.012 1.82031 47.1054 2.34375 46.8718 2.75L46.2334 3.86718C46.7706 4.49218 47.191 5.21875 47.4713 6.00781H48.756C49.2232 6.00781 49.6281 6.34375 49.7059 6.8125C49.8617 7.75 49.8694 8.73437 49.7059 9.71093C49.6281 10.1797 49.2232 10.5234 48.756 10.5234H47.4713C47.191 11.3125 46.7706 12.0391 46.2334 12.6641L46.8718 13.7812C47.1054 14.1875 47.0198 14.7109 46.6538 15.0078C45.9141 15.625 45.0655 16.1172 44.1545 16.4609C43.7107 16.625 43.2124 16.4531 42.9788 16.0391L42.3404 14.9219C41.5306 15.0703 40.6897 15.0703 39.8722 14.9219V14.9219ZM39.0547 10.3281C42.0523 12.6406 45.4703 9.21093 43.1657 6.20312C40.1681 3.88281 36.75 7.32031 39.0547 10.3281V10.3281ZM30.0774 22.3516L32.7013 23.6641C33.4877 24.1172 33.8302 25.0781 33.5188 25.9375C32.8258 27.8281 31.4633 29.5625 30.202 31.0781C29.6258 31.7734 28.6292 31.9453 27.8428 31.4922L25.5771 30.1797C24.3313 31.25 22.8831 32.1016 21.3025 32.6562V35.2812C21.3025 36.1875 20.6563 36.9687 19.7687 37.125C17.8533 37.4531 15.8445 37.4687 13.8591 37.125C12.9637 36.9687 12.3019 36.1953 12.3019 35.2812V32.6562C10.7213 32.0937 9.27314 31.25 8.02738 30.1797L5.76165 31.4844C4.98305 31.9375 3.97865 31.7656 3.40249 31.0703C2.14115 29.5547 0.809744 27.8203 0.116789 25.9375C-0.194652 25.0859 0.147933 24.125 0.934321 23.6641L3.52706 22.3516C3.22341 20.7187 3.22341 19.0391 3.52706 17.3984L0.934321 16.0781C0.147933 15.625 -0.202438 14.6641 0.116789 13.8125C0.809744 11.9219 2.14115 10.1875 3.40249 8.67187C3.97865 7.97656 4.97526 7.80468 5.76165 8.25781L8.02738 9.57031C9.27314 8.5 10.7213 7.64843 12.3019 7.09375V4.46093C12.3019 3.5625 12.9404 2.78125 13.828 2.625C15.7433 2.29687 17.7599 2.28125 19.7453 2.61719C20.6407 2.77344 21.3025 3.54687 21.3025 4.46093V7.08593C22.8831 7.64843 24.3313 8.49218 25.5771 9.5625L27.8428 8.25C28.6214 7.79687 29.6258 7.96875 30.202 8.66406C31.4633 10.1797 32.7869 11.9141 33.4799 13.8047C33.7913 14.6562 33.4877 15.6172 32.7013 16.0781L30.0774 17.3906C30.381 19.0312 30.381 20.7109 30.0774 22.3516V22.3516ZM20.921 24C25.5303 17.9844 18.6864 11.1172 12.6912 15.7422C8.08188 21.7578 14.9258 28.625 20.921 24ZM39.8722 38.2734L39.2337 39.3906C39.0002 39.8047 38.5019 39.9766 38.058 39.8125C37.1393 39.4687 36.2984 38.9766 35.5587 38.3594C35.2006 38.0625 35.1071 37.5391 35.3407 37.1328L35.9792 36.0156C35.4419 35.3906 35.0215 34.6641 34.7412 33.875H33.4565C32.9894 33.875 32.5845 33.5391 32.5066 33.0703C32.3509 32.1328 32.3431 31.1484 32.5066 30.1719C32.5845 29.7031 32.9894 29.3594 33.4565 29.3594H34.7412C35.0215 28.5703 35.4419 27.8437 35.9792 27.2187L35.3407 26.1016C35.1071 25.6953 35.1928 25.1719 35.5587 24.875C36.2984 24.2578 37.1471 23.7656 38.058 23.4219C38.5019 23.2578 39.0002 23.4297 39.2337 23.8437L39.8722 24.9609C40.6897 24.8125 41.5228 24.8125 42.3404 24.9609L42.9788 23.8437C43.2124 23.4297 43.7107 23.2578 44.1545 23.4219C45.0732 23.7656 45.9141 24.2578 46.6538 24.875C47.012 25.1719 47.1054 25.6953 46.8718 26.1016L46.2334 27.2187C46.7706 27.8437 47.191 28.5703 47.4713 29.3594H48.756C49.2232 29.3594 49.6281 29.6953 49.7059 30.1641C49.8617 31.1016 49.8694 32.0859 49.7059 33.0625C49.6281 33.5312 49.2232 33.875 48.756 33.875H47.4713C47.191 34.6641 46.7706 35.3906 46.2334 36.0156L46.8718 37.1328C47.1054 37.5391 47.0198 38.0625 46.6538 38.3594C45.9141 38.9766 45.0655 39.4687 44.1545 39.8125C43.7107 39.9766 43.2124 39.8047 42.9788 39.3906L42.3404 38.2734C41.5306 38.4219 40.6897 38.4219 39.8722 38.2734ZM39.0547 33.6719C42.0523 35.9844 45.4703 32.5547 43.1657 29.5469C40.1681 27.2344 36.75 30.6641 39.0547 33.6719V33.6719Z" fill="#2388A6"/>
</g>
<defs>
<clipPath id="clip0">
<rect width="49.8305" height="40" fill="white"/>
</clipPath>
</defs>
</svg>
